<svg viewBox="0 0 74 27" fill="none" xmlns="http://www.w3.org/2000/svg">
<path fill-rule="evenodd" clip-rule="evenodd" d="M20.1216 5.08755C20.1104 5.03668 20.0841 4.99024 20.046 4.9545C20.0147 4.92528 19.9769 4.90445 19.936 4.89359C20.0267 4.92172 20.0969 4.99558 20.1216 5.08755ZM22.9747 24.4087C22.9749 24.4099 22.975 24.4105 22.975 24.4106L14.8996 26.1516L0 23.3627L1.98755 8.03262C2.08321 7.34312 2.11044 7.3262 2.83379 7.09588L5.19148 6.37253C5.69922 4.22235 7.3078 0.0147172 10.681 0C11.1115 0 11.6192 0.247984 12.035 0.78516H12.1586C13.6067 0.78516 14.4294 2.01846 14.8945 3.36213C15.3721 3.20687 15.6649 3.11489 15.6797 3.11489C15.7726 3.08899 15.988 3.05462 16.1413 3.12097C16.106 3.10664 16.0678 3.09902 16.0287 3.09866L14.9043 26.1487L22.9747 24.4087ZM14.0681 3.62116C13.8264 3.70079 13.5602 3.78043 13.2802 3.86419L13.2801 3.86422C13.1255 3.91048 12.9667 3.958 12.8054 4.00748V3.73006C12.8201 3.03688 12.7149 2.34665 12.4978 1.68732C13.2528 1.80359 13.7605 2.6513 14.0681 3.62116ZM11.5883 1.8654C11.8348 2.59169 11.9562 3.35698 11.9253 4.12448V4.26282L9.32037 5.07227C9.83032 3.1686 10.77 2.22744 11.5868 1.87349L11.5883 1.8654ZM10.5875 0.928653C10.7421 0.932332 10.8914 0.980162 11.0187 1.06699C9.93187 1.57326 8.7832 2.85071 8.29017 5.40855L6.22977 6.03992C6.8111 4.09873 8.16728 0.924238 10.5861 0.924238L10.5875 0.928653ZM12.1576 9.35287L11.1553 12.311C10.5497 12.0167 9.8867 11.8599 9.21412 11.8474C7.64159 11.8474 7.5658 12.8335 7.5658 13.0807C7.5658 13.6119 8.11471 14.0141 8.77952 14.5013C9.80026 15.2493 11.0942 16.1975 11.0942 18.1199C11.0942 20.6159 9.50699 22.2186 7.38036 22.2186C4.82252 22.2186 3.5127 20.6314 3.5127 20.6314L4.19263 18.3649C4.19263 18.3649 5.53189 19.5202 6.67394 19.5202C6.81044 19.5256 6.94662 19.5032 7.0742 19.4544C7.20178 19.4055 7.3181 19.3312 7.41609 19.2361C7.51409 19.1409 7.59173 19.0268 7.64428 18.9007C7.69683 18.7746 7.7232 18.6391 7.7218 18.5025C7.7218 17.724 7.16351 17.2725 6.53708 16.7659C5.73654 16.1185 4.82473 15.3811 4.82473 13.7562C4.82473 11.3206 6.58049 8.94742 10.1097 8.94742C11.4968 8.96802 12.1598 9.35214 12.1598 9.35214L12.1576 9.35287Z" />
<path opacity=".8" d="M19.8964 4.88533C19.8044 4.87061 17.7844 4.7308 17.7844 4.7308L16.2443 3.19065C16.1876 3.13178 16.1104 3.0994 16.0287 3.09866L14.9043 26.1487L22.9796 24.4076L20.1274 5.11491C20.1083 4.99718 20.0156 4.90299 19.8971 4.88459L19.8964 4.88533Z" />
<path d="M29.9859 13.7593C29.4097 13.4502 29.1117 13.1831 29.1117 12.8174C29.1117 12.3538 29.5164 12.0543 30.1735 12.0543C30.6613 12.0648 31.1424 12.1701 31.59 12.3641L32.1213 10.7496C32.1213 10.7496 31.6342 10.3728 30.2066 10.3728C28.2154 10.3728 26.832 11.5134 26.832 13.1161C26.832 14.0227 27.4736 14.7203 28.3361 15.2177C29.0329 15.6224 29.278 15.8903 29.278 16.3127C29.278 16.7351 28.9351 17.0875 28.2824 17.0875C27.3206 17.0875 26.4133 16.5901 26.4133 16.5901L25.8496 18.2046C25.8496 18.2046 26.6907 18.7682 28.0954 18.7682C30.1411 18.7682 31.6128 17.7616 31.6128 15.9425C31.6239 14.958 30.8821 14.2722 29.994 13.7519L29.9859 13.7593ZM38.1495 10.3633C37.1428 10.3633 36.3466 10.8394 35.7373 11.5745L35.7035 11.5635L36.5777 6.98937H34.3002L32.0875 18.638H34.3664L35.1295 14.6555C35.4283 13.1514 36.2061 12.2213 36.9324 12.2213C37.4401 12.2213 37.6403 12.5642 37.6403 13.0624C37.6403 13.4009 37.6064 13.7372 37.5409 14.0691L36.6785 18.627H38.9574L39.8537 13.9175C39.9516 13.4296 40.0082 12.9344 40.0193 12.4384C40.0082 11.1551 39.3335 10.3809 38.1502 10.3809L38.1495 10.3633ZM45.1622 10.3633C42.4189 10.3633 40.6043 12.8416 40.6043 15.5879C40.6043 17.3583 41.6993 18.7741 43.7464 18.7741C46.4374 18.7741 48.2602 16.362 48.2602 13.5495C48.2602 11.9123 47.2984 10.3633 45.1659 10.3633H45.1622ZM44.0437 17.0338C43.2688 17.0338 42.9377 16.3716 42.9377 15.5547C42.9377 14.2493 43.6103 12.1146 44.8524 12.1146C45.6596 12.1146 45.929 12.8115 45.929 13.487C45.926 14.8888 45.252 17.0338 44.0452 17.0338H44.0437ZM54.0881 10.3633C52.5428 10.3633 51.676 11.7084 51.676 11.7084H51.6422L51.7768 10.4972H49.7584L49.2948 13.5179L47.7127 21.8596H49.9813L50.6127 18.4849H50.6568C50.6568 18.4849 51.1204 18.7837 51.9961 18.7837C54.6732 18.7837 56.4208 16.0404 56.4208 13.2677C56.4319 11.7408 55.7482 10.3699 54.0867 10.3699L54.0881 10.3633ZM51.9085 17.0669C51.5647 17.0738 51.23 16.9556 50.9666 16.7343L51.3434 14.5989C51.6127 13.1823 52.3501 12.2309 53.1462 12.2309C53.8431 12.2309 54.0528 12.8725 54.0528 13.4818C54.0565 14.9661 53.1845 17.0677 51.9115 17.0677L51.9085 17.0669ZM59.6866 7.08871C59.3378 7.0865 59.0022 7.22484 58.7572 7.47282C58.5121 7.72081 58.376 8.0571 58.3892 8.40589C58.3892 9.07847 58.8212 9.54647 59.4658 9.54647H59.4996C59.6755 9.55346 59.8509 9.52433 60.015 9.46089C60.1792 9.39745 60.3286 9.30103 60.454 9.1776C60.5794 9.05417 60.6782 8.90634 60.7443 8.74323C60.8104 8.58013 60.8423 8.40522 60.8382 8.22929C60.8382 7.56702 60.3952 7.08871 59.6976 7.08871H59.6866ZM56.5032 18.6159H58.7822L60.3304 10.5436H58.0434L56.5032 18.6159ZM66.1378 10.5325H64.5462L64.6242 10.1558C64.7588 9.3809 65.2217 8.68405 65.9693 8.68405C66.217 8.68414 66.4633 8.72134 66.7 8.79443L67.1401 7.01144C67.1401 7.01144 66.7353 6.81276 65.9009 6.81276C65.0888 6.79257 64.2962 7.0632 63.6661 7.57585C62.8912 8.23812 62.5255 9.19032 62.3415 10.1536L62.2679 10.5303H61.2061L60.8735 12.2449H61.9353L60.7241 18.6174H63.0112L64.2224 12.2449H65.7942L66.1032 10.5303L66.1378 10.5325ZM71.6258 10.5436L69.5566 16.0971H69.5228L68.9591 10.5436H66.5573L67.9296 17.9551C67.9626 18.0818 67.9469 18.2163 67.8855 18.3319C67.5875 18.8816 67.1629 19.3518 66.6463 19.7043C66.2504 19.9765 65.8185 20.1929 65.363 20.3459L65.9943 22.2812C66.8291 22.0578 67.5955 21.6307 68.2247 21.0384C69.2645 20.0641 70.2262 18.56 71.2123 16.5128L73.9997 10.5391H71.6251L71.6258 10.5436Z" />
</svg>
